<svg width="19" height="19" viewBox="0 0 19 19" fill="none" xmlns="http://www.w3.org/2000/svg">
<path d="M16.1239 9.05098L9.11394 2.96689C9.06013 2.92051 8.99148 2.89453 8.91912 2.89453H7.27703C7.13972 2.89453 7.07664 3.06523 7.18054 3.1543L13.6784 8.79492H2.82019C2.73855 8.79492 2.67175 8.86172 2.67175 8.94336V10.0566C2.67175 10.1383 2.73855 10.2051 2.82019 10.2051H13.6765L7.17869 15.8457C7.07478 15.9366 7.13787 16.1055 7.27517 16.1055H8.97292C9.00818 16.1055 9.04343 16.0925 9.06941 16.0684L16.1239 9.94902C16.1881 9.89317 16.2396 9.82418 16.2749 9.74672C16.3102 9.66926 16.3285 9.58512 16.3285 9.5C16.3285 9.41488 16.3102 9.33074 16.2749 9.25328C16.2396 9.17582 16.1881 9.10683 16.1239 9.05098Z" fill="white"/>
</svg>
